 <svg xmlns="http://www.w3.org/2000/svg" width="100pt" height="100pt"
viewBox="0 0 233.000000 225.000000">
<g transform="translate(0.000000,225.000000) scale(0.100000,-0.100000)" fill="rgb(188, 108, 37)"
stroke="none">
<path d="M20 1165 l0 -1085 1145 0 1145 0 0 1085 0 1085 -1145 0 -1145 0 0
          -1085z m2210 0 l0 -1005 -1065 0 -1065 0 0 1005 0 1005 1065 0 1065 0 0 -1005z" />
<path d="M650 1195 l0 -717 358 4 c395 5 402 6 535 75 90 48 156 121 212 237
          70 147 95 312 76 506 -14 137 -32 206 -82 308 -47 97 -134 191 -215 234 -106
          57 -138 61 -526 66 l-358 4 0 -717z m689 451 c126 -47 182 -142 202 -343 21
          -208 -18 -423 -92 -499 -64 -66 -111 -78 -326 -82 l-193 -4 0 477 0 477 183
          -4 c135 -4 193 -10 226 -22z" /></g>
</svg>